<?xml version="1.0" encoding="UTF-8" standalone="no"?>
<svg
   version="1.1"
   id="Layer_1"
   x="0px"
   y="0px"
   viewBox="0 0 122.88 34.86"
   style="enable-background:new 0 0 122.88 34.86"
   xml:space="preserve"
   sodipodi:docname="instagramLogoText.svg"
   xmlns:inkscape="http://www.inkscape.org/namespaces/inkscape"
   xmlns:sodipodi="http://sodipodi.sourceforge.net/DTD/sodipodi-0.dtd"
   xmlns="http://www.w3.org/2000/svg"
   xmlns:svg="http://www.w3.org/2000/svg"><defs
     id="defs11" /><sodipodi:namedview
     id="namedview9"
     pagecolor="#ffffff"
     bordercolor="#000000"
     borderopacity="0.25"
     inkscape:showpageshadow="2"
     inkscape:pageopacity="0.0"
     inkscape:pagecheckerboard="0"
     inkscape:deskcolor="#d1d1d1" /><style
     type="text/css"
     id="style2"><![CDATA[
	.st0{fill:#262626;}
]]></style><g
     id="g6"><path
       class="st0"
       d="M 6.32,0.12 C 3.81,1.17 1.04,4.15 0.17,7.88 -0.94,12.61 3.67,14.61 4.04,13.95 4.48,13.18 3.21,12.92 2.95,10.46 2.62,7.3 4.1,3.76 5.95,2.21 6.29,1.92 6.28,2.32 6.28,3.07 c 0,1.33 -0.07,13.26 -0.07,15.75 0,3.37 -0.14,4.43 -0.39,5.49 -0.25,1.07 -0.66,1.79 -0.35,2.06 0.34,0.31 1.82,-0.43 2.67,-1.62 1.02,-1.43 1.38,-3.14 1.44,-5 0.08,-2.24 0.07,-5.8 0.08,-7.83 C 9.66,10.06 9.69,4.61 9.63,1.33 9.61,0.52 7.38,-0.32 6.32,0.12 Z m 89.31,15.77 c -0.08,1.75 -0.47,3.12 -0.95,4.09 -0.93,1.87 -2.87,2.45 -3.69,-0.24 -0.45,-1.46 -0.47,-3.91 -0.15,-5.96 0.33,-2.08 1.24,-3.66 2.76,-3.51 1.5,0.14 2.19,2.06 2.03,5.62 z M 70.46,26.76 c -0.02,2.91 -0.48,5.46 -1.46,6.2 -1.39,1.05 -3.27,0.26 -2.88,-1.86 0.34,-1.88 1.97,-3.8 4.34,-6.14 0,0 0.01,0.53 0,1.8 z M 70.08,15.88 c -0.08,1.6 -0.5,3.2 -0.95,4.1 -0.93,1.87 -2.88,2.45 -3.69,-0.24 -0.55,-1.84 -0.42,-4.22 -0.15,-5.72 0.35,-1.95 1.21,-3.75 2.76,-3.75 1.5,0 2.24,1.65 2.03,5.61 z M 55.5,15.85 c -0.09,1.69 -0.42,3.1 -0.95,4.13 -0.96,1.86 -2.85,2.45 -3.69,-0.24 -0.6,-1.93 -0.4,-4.57 -0.15,-6 0.37,-2.12 1.3,-3.61 2.76,-3.47 1.49,0.15 2.22,2.06 2.03,5.58 z m 66.82,1.97 c -0.37,0 -0.53,0.38 -0.67,1.01 -0.48,2.2 -0.98,2.7 -1.63,2.7 -0.72,0 -1.37,-1.09 -1.54,-3.27 -0.13,-1.72 -0.11,-4.87 0.06,-8.02 0.03,-0.65 -0.14,-1.28 -1.88,-1.91 -0.75,-0.27 -1.83,-0.67 -2.37,0.63 -1.52,3.68 -2.12,6.6 -2.26,7.78 -0.01,0.06 -0.08,0.07 -0.1,-0.07 -0.09,-0.95 -0.29,-2.68 -0.31,-6.3 0,-0.71 -0.15,-1.31 -0.94,-1.8 -0.51,-0.32 -2.04,-0.89 -2.6,-0.21 -0.48,0.55 -1.04,2.03 -1.61,3.79 -0.47,1.43 -0.8,2.39 -0.8,2.39 0,0 0.01,-3.85 0.01,-5.31 0,-0.55 -0.38,-0.73 -0.49,-0.77 -0.51,-0.15 -1.52,-0.4 -1.95,-0.4 -0.53,0 -0.66,0.3 -0.66,0.73 0,0.06 -0.08,5.07 -0.08,8.58 0,0.15 0,0.32 0,0.5 -0.29,1.61 -1.24,3.8 -2.28,3.8 -1.03,0 -1.52,-0.92 -1.52,-5.09 0,-2.44 0.07,-3.5 0.11,-5.26 0.02,-1.02 0.06,-1.8 0.06,-1.97 C 98.86,8.81 97.92,8.53 97.49,8.43 97.05,8.33 96.67,8.29 96.37,8.31 c -0.42,0.02 -0.72,0.3 -0.72,0.68 0,0.2 0,0.59 0,0.59 -0.54,-0.85 -1.42,-1.45 -2,-1.62 -1.56,-0.47 -3.2,-0.05 -4.43,1.67 -0.98,1.37 -1.57,2.92 -1.8,5.15 -0.17,1.63 -0.11,3.28 0.19,4.68 -0.36,1.58 -1.04,2.22 -1.78,2.22 -1.08,0 -1.86,-1.76 -1.77,-4.79 0.06,-2 0.46,-3.4 0.9,-5.43 0.19,-0.86 0.03,-1.32 -0.34,-1.75 -0.35,-0.4 -1.09,-0.6 -2.16,-0.35 -0.76,0.18 -1.85,0.37 -2.84,0.52 0,0 0.06,-0.24 0.11,-0.66 0.26,-2.21 -2.15,-2.03 -2.91,-1.33 -0.46,0.42 -0.77,0.92 -0.89,1.81 -0.19,1.42 0.97,2.09 0.97,2.09 -0.38,1.74 -1.31,4.01 -2.27,5.65 -0.51,0.88 -0.91,1.53 -1.42,2.23 0,-0.26 0,-0.52 0,-0.77 -0.01,-3.66 0.04,-6.53 0.06,-7.57 0.02,-1.02 0.06,-1.78 0.06,-1.95 C 73.32,8.98 73.09,8.83 72.61,8.64 72.18,8.47 71.68,8.36 71.16,8.32 70.5,8.24 70.1,8.59 70.11,9 c 0,0.08 0,0.56 0,0.56 -0.54,-0.85 -1.42,-1.45 -2,-1.62 -1.56,-0.46 -3.2,-0.05 -4.43,1.67 -0.98,1.37 -1.62,3.29 -1.8,5.13 -0.17,1.72 -0.14,3.17 0.09,4.4 -0.25,1.23 -0.96,2.52 -1.77,2.52 -1.03,0 -1.62,-0.92 -1.62,-5.09 0,-2.44 0.07,-3.5 0.11,-5.26 0.02,-1.02 0.06,-1.8 0.06,-1.97 C 58.74,8.8 57.8,8.52 57.37,8.42 56.91,8.31 56.52,8.28 56.22,8.3 55.82,8.33 55.54,8.69 55.54,8.95 V 9.57 C 55,8.72 54.12,8.12 53.54,7.95 51.98,7.49 50.35,7.9 49.11,9.62 c -0.81,1.12 -1.46,2.36 -1.8,5.11 -0.1,0.79 -0.14,1.54 -0.13,2.23 -0.32,1.97 -1.75,4.25 -2.91,4.25 -0.68,0 -1.33,-1.32 -1.33,-4.14 0,-3.76 0.23,-9.1 0.27,-9.62 0,0 1.47,-0.02 1.76,-0.03 0.73,-0.01 1.4,0.01 2.38,-0.04 0.49,-0.02 0.96,-1.79 0.46,-2 -0.23,-0.1 -1.85,-0.19 -2.5,-0.2 -0.54,-0.01 -2.05,-0.12 -2.05,-0.12 0,0 0.14,-3.55 0.17,-3.92 C 43.46,0.83 43.05,0.67 42.82,0.57 42.26,0.33 41.75,0.22 41.15,0.09 c -0.83,-0.17 -1.2,0 -1.27,0.69 -0.11,1.06 -0.17,4.16 -0.17,4.16 -0.61,0 -2.68,-0.12 -3.28,-0.12 -0.56,0 -1.17,2.42 -0.39,2.45 0.9,0.03 2.46,0.06 3.49,0.1 0,0 -0.05,5.44 -0.05,7.11 0,0.18 0,0.35 0,0.52 -0.57,2.97 -2.58,4.57 -2.58,4.57 0.43,-1.96 -0.45,-3.44 -2.04,-4.69 -0.58,-0.46 -1.74,-1.33 -3.03,-2.29 0,0 0.75,-0.74 1.41,-2.22 0.47,-1.05 0.49,-2.25 -0.66,-2.52 -1.9,-0.44 -3.48,0.96 -3.94,2.45 -0.36,1.16 -0.17,2.02 0.54,2.91 0.05,0.06 0.11,0.13 0.17,0.2 -0.43,0.83 -1.02,1.94 -1.52,2.81 -1.39,2.4 -2.44,4.3 -3.23,4.3 -0.63,0 -0.63,-1.93 -0.63,-3.74 0,-1.56 0.11,-3.9 0.21,-6.32 C 24.21,9.66 23.81,9.2 23.14,8.79 22.73,8.54 21.86,8.04 21.36,8.04 c -0.76,0 -2.93,0.1 -4.99,6.06 -0.26,0.75 -0.77,2.12 -0.77,2.12 L 15.64,9.06 C 15.64,8.89 15.55,8.73 15.35,8.62 15,8.43 14.08,8.05 13.25,8.05 c -0.39,0 -0.59,0.18 -0.59,0.55 l -0.09,11.2 c 0,0.85 0.02,1.84 0.11,2.28 0.08,0.43 0.22,0.79 0.39,1 0.17,0.21 0.36,0.37 0.68,0.44 0.3,0.06 1.93,0.27 2.02,-0.35 0.1,-0.75 0.11,-1.56 0.96,-4.58 1.33,-4.7 3.08,-6.99 3.89,-7.8 0.14,-0.14 0.31,-0.15 0.3,0.08 -0.04,1.03 -0.16,3.6 -0.24,5.79 -0.22,5.85 0.84,6.94 2.36,6.94 1.16,0 2.8,-1.16 4.56,-4.08 1.1,-1.82 2.16,-3.61 2.93,-4.9 0.53,0.49 1.13,1.02 1.73,1.59 1.39,1.32 1.85,2.57 1.54,3.76 -0.23,0.91 -1.1,1.84 -2.65,0.93 -0.45,-0.27 -0.65,-0.47 -1.1,-0.77 -0.24,-0.16 -0.62,-0.21 -0.84,-0.04 -0.58,0.44 -0.91,1 -1.1,1.68 -0.18,0.67 0.49,1.03 1.18,1.34 0.6,0.27 1.89,0.51 2.71,0.54 3.2,0.11 5.77,-1.55 7.56,-5.81 0.32,3.68 1.68,5.77 4.05,5.77 1.58,0 3.17,-2.04 3.86,-4.05 0.2,0.82 0.49,1.53 0.87,2.13 1.82,2.89 5.36,2.27 7.13,-0.19 0.55,-0.76 0.63,-1.03 0.63,-1.03 0.26,2.31 2.12,3.12 3.19,3.12 1.2,0 2.43,-0.56 3.29,-2.51 0.1,0.21 0.21,0.41 0.33,0.6 1.82,2.89 5.36,2.26 7.13,-0.19 0.08,-0.11 0.16,-0.22 0.22,-0.31 l 0.05,1.52 c 0,0 -1.01,0.93 -1.63,1.5 -2.74,2.51 -4.82,4.42 -4.97,6.63 -0.2,2.83 2.1,3.88 3.83,4.02 1.84,0.15 3.42,-0.87 4.39,-2.3 0.85,-1.25 1.41,-3.95 1.37,-6.62 -0.02,-1.07 -0.04,-2.42 -0.06,-3.88 0.96,-1.12 2.04,-2.53 3.04,-4.18 1.09,-1.8 2.25,-4.22 2.85,-6.1 0,0 1.01,0.01 2.09,-0.06 0.35,-0.02 0.45,0.05 0.38,0.3 -0.08,0.31 -1.36,5.27 -0.19,8.58 0.8,2.26 2.62,2.99 3.69,2.99 1.26,0 2.46,-0.95 3.11,-2.36 0.08,0.16 0.16,0.31 0.25,0.45 1.82,2.89 5.34,2.26 7.13,-0.19 0.4,-0.55 0.63,-1.03 0.63,-1.03 0.38,2.4 2.25,3.14 3.31,3.14 1.11,0 2.17,-0.46 3.02,-2.48 0.04,0.89 0.09,1.62 0.18,1.85 0.05,0.14 0.37,0.32 0.6,0.4 1.02,0.38 2.05,0.2 2.44,0.12 0.27,-0.05 0.47,-0.27 0.5,-0.82 0.07,-1.45 0.03,-3.88 0.47,-5.68 0.74,-3.03 1.42,-4.21 1.75,-4.79 0.18,-0.33 0.39,-0.38 0.4,-0.04 0.02,0.7 0.05,2.75 0.33,5.5 0.21,2.03 0.49,3.22 0.7,3.6 0.61,1.08 1.37,1.13 1.99,1.13 0.39,0 1.21,-0.11 1.14,-0.8 -0.04,-0.34 0.03,-2.41 0.75,-5.4 0.47,-1.95 1.26,-3.71 1.55,-4.35 0.11,-0.24 0.15,-0.05 0.15,-0.01 -0.06,1.34 -0.19,5.73 0.35,8.13 0.74,3.25 2.89,3.62 3.63,3.62 1.59,0 2.9,-1.21 3.34,-4.41 0.13,-0.74 -0.03,-1.34 -0.5,-1.34 z m 0,0 v 0 z"
       id="path4" /></g></svg>
